HIERARCHY
ROOT Hips
{
	OFFSET 0.000000 0.000000 0.000000
	CHANNELS 6 Xposition Yposition Zposition Zrotation Yrotation Xrotation 
	JOINT LeftUpLeg_virtual
	{
		OFFSET 0.000000 0.000000 0.000000
		CHANNELS 3 Zrotation Yrotation Xrotation
		JOINT LeftUpLeg
		{
			OFFSET 10.205400 -3.823500 0.155100
			CHANNELS 3 Zrotation Yrotation Xrotation
			JOINT LeftLeg
			{
				OFFSET 0.708757 -12.982077 0.567790
				CHANNELS 3 Zrotation Yrotation Xrotation
				JOINT LeftFoot
				{
					OFFSET -0.708756 -10.717838 -2.184338
					CHANNELS 3 Zrotation Yrotation Xrotation
					JOINT LeftToeBase
					{
						OFFSET 0.108149 -7.191104 7.560241
						CHANNELS 3 Zrotation Yrotation Xrotation
						End Site
						{
							OFFSET 0.000000 0.000000 0.000000
						}
					}
				}
			}
		}
	}
	JOINT RightUpLeg_virtual
	{
		OFFSET 0.000000 0.000000 0.000000
		CHANNELS 3 Zrotation Yrotation Xrotation
		JOINT RightUpLeg
		{
			OFFSET -10.205400 -3.823500 0.005500
			CHANNELS 3 Zrotation Yrotation Xrotation
			JOINT RightLeg
			{
				OFFSET -0.708756 -12.982134 0.610632
				CHANNELS 3 Zrotation Yrotation Xrotation
				JOINT RightFoot
				{
					OFFSET 0.708754 -10.717769 -1.945823
					CHANNELS 3 Zrotation Yrotation Xrotation
					JOINT RightToeBase
					{
						OFFSET -0.108140 -7.191069 7.372968
						CHANNELS 3 Zrotation Yrotation Xrotation
						End Site
						{
							OFFSET 0.000000 0.000000 0.000000
						}
					}
				}
			}
		}
	}
	JOINT Spine_virtual
	{
		OFFSET 0.000000 0.000000 0.000000
		CHANNELS 3 Zrotation Yrotation Xrotation
		JOINT Spine
		{
			OFFSET 0.000000 6.876099 0.125700
			CHANNELS 3 Zrotation Yrotation Xrotation
			JOINT Spine1
			{
				OFFSET 0.000000 8.022060 0.146608
				CHANNELS 3 Zrotation Yrotation Xrotation
				JOINT Spine2
				{
					OFFSET 0.000000 9.168068 0.167552
					CHANNELS 3 Zrotation Yrotation Xrotation
					JOINT Neck_virtual
					{
						OFFSET 0.000000 0.000000 0.000000
						CHANNELS 3 Zrotation Yrotation Xrotation
						JOINT Neck
						{
							OFFSET 0.000000 10.314075 0.188496
							CHANNELS 3 Zrotation Yrotation Xrotation
							JOINT Head
							{
								OFFSET 0.000000 7.643700 -2.377400
								CHANNELS 3 Zrotation Yrotation Xrotation
								End Site
								{
									OFFSET 0.000000 0.000000 0.000000
								}
							}
						}
					}
					JOINT LeftShoulder_virtual
					{
						OFFSET 0.000000 0.000000 0.000000
						CHANNELS 3 Zrotation Yrotation Xrotation
						JOINT LeftShoulder
						{
							OFFSET 4.392200 8.824978 0.174984
							CHANNELS 3 Zrotation Yrotation Xrotation
							JOINT LeftArm
							{
								OFFSET 8.771219 -2.981674 -0.026999
								CHANNELS 3 Zrotation Yrotation Xrotation
								JOINT LeftForeArm
								{
									OFFSET 8.512804 0.000000 -0.000000
									CHANNELS 3 Zrotation Yrotation Xrotation
									JOINT LeftHand
									{
										OFFSET 18.484802 0.000000 -0.000000
										CHANNELS 3 Zrotation Yrotation Xrotation
										End Site
										{
											OFFSET 0.000000 0.000000 0.000000
										}
									}
								}
							}
						}
					}
					JOINT RightShoulder_virtual
					{
						OFFSET 0.000000 0.000000 0.000000
						CHANNELS 3 Zrotation Yrotation Xrotation
						JOINT RightShoulder
						{
							OFFSET -4.392200 8.824993 0.141379
							CHANNELS 3 Zrotation Yrotation Xrotation
							JOINT RightArm
							{
								OFFSET -8.771282 -2.981682 -0.094208
								CHANNELS 3 Zrotation Yrotation Xrotation
								JOINT RightForeArm
								{
									OFFSET -8.494598 0.000000 0.000000
									CHANNELS 3 Zrotation Yrotation Xrotation
									JOINT RightHand
									{
										OFFSET -18.483803 0.000000 0.000001
										CHANNELS 3 Zrotation Yrotation Xrotation
										End Site
										{
											OFFSET 0.000000 0.000000 0.000000
										}
									}
								}
							}
						}
					}
				}
			}
		}
	}
}
MOTION
Frames: 8
Frame Time: 0.033333
-4.920487 27.158129 -25.157122 179.954803 0.492733 -179.904205 0.260791 -4.605593 4.822260 -7.369469 5.648030 -79.161606 15.661345 1.660746 74.365563 -5.312519 -3.148838 4.336823 0.000000 0.000000 0.000000 3.157780 -1.513772 6.726247 2.648617 -8.241106 -82.207522 -2.454888 -1.204397 71.040948 -1.565552 2.876254 10.358209 0.000000 0.000000 0.000000 0.921520 -0.107633 0.214897 -0.241271 2.249093 -3.742442 -0.461430 -2.953518 5.191483 0.025890 0.028544 -0.005535 -0.751123 -1.735097 8.705411 -2.175324 4.804783 27.736131 0.000000 0.000000 0.000000 0.799922 -1.418244 4.512789 -8.650442 -3.711033 1.291873 -41.565089 -1.069001 27.822058 156.250085 -87.899876 -135.224604 0.000000 0.000000 0.000000 -2.428330 -0.395071 3.899737 7.150753 4.977027 -6.573888 40.612390 3.669509 14.873125 171.638446 76.220786 164.346933 0.000000 0.000000 0.000000 
-4.915995 27.174841 -25.178169 179.975020 0.575013 -179.922715 0.272133 -4.519565 4.908760 -7.302469 5.703403 -79.147979 15.635343 1.762039 74.388137 -5.317897 -3.164286 4.352803 0.000000 0.000000 0.000000 3.164616 -1.437558 6.820402 2.688673 -8.178784 -82.181171 -2.407321 -1.186164 70.997808 -1.631911 2.880399 10.307513 0.000000 0.000000 0.000000 0.927350 -0.053233 0.338694 -0.336397 2.075186 -3.883756 -0.479269 -2.940958 5.182750 0.011774 0.013792 0.022892 -0.771304 -1.690667 8.664209 -2.046983 4.689911 27.576730 0.000000 0.000000 0.000000 0.792440 -1.354625 4.405647 -8.854257 -3.873223 1.194477 -41.672142 -0.838812 28.198779 152.169730 -87.927737 -130.993726 0.000000 0.000000 0.000000 -2.479713 -0.358563 3.856054 7.114054 4.742617 -7.124760 39.449120 5.780680 12.830808 171.981322 75.516675 164.657952 0.000000 0.000000 0.000000 
-4.911751 27.189419 -25.199362 179.879930 0.664891 -179.864112 0.186512 -4.467889 4.938882 -7.253114 5.786663 -79.185231 15.614130 1.880677 74.422472 -5.319865 -3.200962 4.308705 0.000000 0.000000 0.000000 3.064217 -1.363034 6.859718 2.732119 -8.144948 -82.219495 -2.354047 -1.148919 70.961321 -1.691679 2.878331 10.259852 0.000000 0.000000 0.000000 0.859644 0.018692 0.373526 -0.509269 1.935657 -4.081875 -0.405210 -2.902396 5.124262 -0.007929 0.025344 -0.004688 -0.796078 -1.823660 8.703581 -1.904071 4.541114 27.348101 0.000000 0.000000 0.000000 0.782575 -1.343368 4.472765 -9.042083 -4.097226 1.029631 -41.830295 -0.576070 28.715765 144.324561 -87.902861 -122.963158 0.000000 0.000000 0.000000 -2.488963 -0.295265 3.817616 7.167661 4.481613 -7.518768 38.163668 8.077232 10.333301 173.012762 74.620513 165.674680 0.000000 0.000000 0.000000 
-4.912744 27.199738 -25.215994 179.909232 0.709080 -179.936908 0.228612 -4.420590 5.032471 -7.170862 5.827424 -79.141115 15.611280 1.933310 74.455182 -5.320979 -3.196230 4.297353 0.000000 0.000000 0.000000 3.081775 -1.374529 6.959846 2.785726 -8.108999 -82.177885 -2.312240 -1.139325 70.911379 -1.726968 2.879058 10.244802 0.000000 0.000000 0.000000 0.895592 -0.001448 0.474655 -0.573866 1.753366 -4.213131 -0.505189 -2.903920 5.123994 0.008647 -0.028173 0.025908 -0.778618 -1.631256 8.674372 -1.731543 4.385337 27.126470 0.000000 0.000000 0.000000 0.785759 -1.223132 4.449776 -9.244218 -4.241266 1.031328 -42.034016 -0.448686 28.928245 140.511280 -88.033174 -118.965694 0.000000 0.000000 0.000000 -2.497642 -0.158118 3.773905 7.203538 4.212172 -7.968272 36.737887 10.458517 7.669983 174.050897 73.645497 166.703853 0.000000 0.000000 0.000000 
-4.914556 27.206047 -25.226389 179.974160 0.805761 -179.869439 0.296369 -4.414488 5.045425 -7.136597 5.897161 -79.200237 15.616282 1.981556 74.519481 -5.314932 -3.232733 4.200109 0.000000 0.000000 0.000000 3.124527 -1.344707 6.963962 2.844701 -8.094929 -82.245552 -2.273129 -1.155531 70.792145 -1.747133 2.869847 10.304456 0.000000 0.000000 0.000000 0.944623 0.031365 0.475507 -0.668928 1.665136 -4.419888 -0.500761 -2.839483 5.075218 0.016402 0.008390 0.044615 -0.803558 -1.563535 8.649755 -1.558854 4.243501 26.855833 0.000000 0.000000 0.000000 0.749696 -1.204142 4.450669 -9.426002 -4.552136 0.728366 -42.255129 -0.137108 29.255036 138.118774 -88.065686 -116.504067 0.000000 0.000000 0.000000 -2.555101 -0.202616 3.700418 7.284198 3.777431 -8.610790 35.377231 12.687265 4.928531 174.345770 72.546089 166.995366 0.000000 0.000000 0.000000 
-4.921751 27.209362 -25.229271 179.915912 0.881805 -179.924477 0.225224 -4.405085 5.137937 -7.104974 5.892262 -79.186672 15.634385 2.057986 74.551624 -5.298490 -3.263875 4.179960 0.000000 0.000000 0.000000 3.081969 -1.392589 7.026691 2.885954 -8.101849 -82.241570 -2.244704 -1.158911 70.717477 -1.724039 2.867386 10.391035 0.000000 0.000000 0.000000 0.937110 0.017362 0.578558 -0.789429 1.580103 -4.567375 -0.502447 -2.785365 5.038678 0.010230 0.018569 0.012248 -0.770142 -1.556742 8.675185 -1.360050 4.076567 26.568218 0.000000 0.000000 0.000000 0.733637 -1.207188 4.426021 -9.577232 -4.754660 0.637648 -42.494094 0.053196 29.363509 134.904050 -88.077052 -113.197169 0.000000 0.000000 0.000000 -2.567237 -0.170219 3.698527 7.384589 3.395774 -9.230059 34.094443 14.781383 2.419359 175.057188 71.476509 167.701088 0.000000 0.000000 0.000000 
-4.934983 27.210938 -25.226650 179.914764 0.885106 -179.919286 0.236259 -4.474231 5.187918 -7.091999 5.912104 -79.220113 15.672240 2.094964 74.565886 -5.259264 -3.285759 4.142063 0.000000 0.000000 0.000000 3.072015 -1.489184 7.076682 2.913819 -8.088424 -82.300296 -2.217777 -1.202044 70.550288 -1.679383 2.858048 10.559623 0.000000 0.000000 0.000000 0.961445 -0.067316 0.650065 -0.893658 1.480795 -4.742076 -0.508819 -2.765217 4.996293 0.043826 -0.016587 0.036477 -0.815845 -1.467925 8.612239 -1.177171 3.929022 26.215728 0.000000 0.000000 0.000000 0.729852 -1.022152 4.463055 -9.656603 -5.019754 0.539801 -42.721259 0.275683 29.556800 128.590865 -88.027417 -106.818428 0.000000 0.000000 0.000000 -2.605674 -0.046074 3.612788 7.526607 3.126792 -9.522572 32.832002 16.627447 -0.102333 175.976245 70.457117 168.630172 0.000000 0.000000 0.000000 
-4.947467 27.213734 -25.222485 179.969693 0.954047 -179.860847 0.285110 -4.509072 5.218507 -7.081837 5.945610 -79.286878 15.703582 2.110772 74.608595 -5.207307 -3.348983 4.062019 0.000000 0.000000 0.000000 3.111870 -1.523467 7.077082 2.942626 -8.088902 -82.323020 -2.197748 -1.234974 70.388146 -1.614295 2.838816 10.726686 0.000000 0.000000 0.000000 1.025865 -0.203839 0.702217 -0.955287 1.520405 -4.939125 -0.496681 -2.634271 4.911447 0.014627 -0.087847 0.048820 -0.817237 -1.394415 8.538259 -1.028319 3.768997 25.815680 0.000000 0.000000 0.000000 0.709103 -1.008333 4.386691 -9.750047 -5.113297 0.381521 -42.916664 0.446631 29.558026 127.240004 -88.091149 -105.421538 0.000000 0.000000 0.000000 -2.638035 0.036283 3.555700 7.629330 2.833099 -10.044275 31.739722 18.390981 -2.406371 176.524764 69.545287 169.182024 0.000000 0.000000 0.000000 
